<svg xmlns="http://www.w3.org/2000/svg" version="1.1" xmlns:xlink="http://www.w3.org/1999/xlink" xmlns:svgjs="http://svgjs.dev/svgjs" width="1440" height="560" preserveAspectRatio="none" viewBox="0 0 1440 560"><g mask="url(&quot;#SvgjsMask1254&quot;)" fill="none"><rect width="1440" height="560" x="0" y="0" fill="rgba(255, 255, 255, 1)"></rect><path d="M -320.3048037741969,7 C -262.7,104.6 -147.5,441.2 -32.30480377419692,495 C 82.9,548.8 140.5,282.2 255.69519622580307,276 C 370.9,269.8 428.5,515.8 543.6951962258031,464 C 658.9,412.2 716.5,17 831.6951962258031,17 C 946.9,17 1004.5,458.2 1119.695196225803,464 C 1234.9,469.8 1343.63,52.8 1407.695196225803,46 C 1471.76,39.2 1433.54,353.2 1440,430" stroke="rgba(131, 66, 236, 0.35)" stroke-width="2"></path><path d="M -534.8124009356676,269 C -477.21,321 -362.01,571.4 -246.8124009356676,529 C -131.61,486.6 -74.01,80.6 41.1875990643324,57 C 156.39,33.4 213.99,391 329.1875990643324,411 C 444.39,431 501.99,178.8 617.1875990643324,157 C 732.39,135.2 789.99,313.6 905.1875990643324,302 C 1020.39,290.4 1086.23,57.6 1193.1875990643325,99 C 1300.15,140.4 1390.64,427 1440,509" stroke="rgba(131, 66, 236, 0.35)" stroke-width="2"></path><path d="M -506.1635677830501,336 C -448.56,315.6 -333.36,201.6 -218.16356778305013,234 C -102.96,266.4 -45.36,504.8 69.83643221694987,498 C 185.04,491.2 242.64,221.2 357.8364322169499,200 C 473.04,178.8 530.64,379.6 645.8364322169499,392 C 761.04,404.4 818.64,254 933.8364322169499,262 C 1049.04,270 1120.6,431.2 1221.8364322169498,432 C 1323.07,432.8 1396.37,299.2 1440,266" stroke="rgba(131, 66, 236, 0.35)" stroke-width="2"></path></g><defs><mask id="SvgjsMask1254"><rect width="1440" height="560" fill="#ffffff"></rect></mask></defs></svg>